<svg width="22" height="22" viewBox="0 0 22 22" fill="none" xmlns="http://www.w3.org/2000/svg">
<path d="M18.3333 6.4165H3.66668C2.65415 6.4165 1.83334 7.23732 1.83334 8.24984V17.4165C1.83334 18.429 2.65415 19.2498 3.66668 19.2498H18.3333C19.3459 19.2498 20.1667 18.429 20.1667 17.4165V8.24984C20.1667 7.23732 19.3459 6.4165 18.3333 6.4165Z" stroke="#1B1B1B" stroke-linecap="round" stroke-linejoin="round"/>
<path d="M14.6667 19.25V4.58333C14.6667 4.0971 14.4735 3.63079 14.1297 3.28697C13.7859 2.94315 13.3196 2.75 12.8333 2.75H9.16668C8.68045 2.75 8.21413 2.94315 7.87031 3.28697C7.5265 3.63079 7.33334 4.0971 7.33334 4.58333V19.25" stroke="#1B1B1B" stroke-linecap="round" stroke-linejoin="round"/>
</svg>
