<svg width="22" height="22" viewBox="0 0 22 22" fill="none" xmlns="http://www.w3.org/2000/svg">
<path d="M19.4669 1.90143C19.191 2.58059 18.809 3.23852 18.3633 3.83279C14.4157 -0.2634 7.89999 -0.369519 3.82502 3.5781C-0.249947 7.52573 -0.37729 14.0414 3.57033 18.1164C3.69768 18.265 3.84624 18.3923 3.99481 18.5196L4.37684 18.8592C8.70649 22.5097 15.201 21.9579 18.8515 17.6283C20.2522 15.9728 21.1012 13.8929 21.2497 11.728C21.5469 9.15996 20.7616 5.84905 19.4669 1.90143ZM5.48047 18.6258C5.18334 19.0078 4.63152 19.0502 4.2495 18.7531C3.86747 18.456 3.82502 17.9042 4.12215 17.5221C4.41929 17.1401 4.9711 17.0977 5.35313 17.3948C5.71394 17.6919 5.77761 18.2437 5.48047 18.6258ZM19.4033 15.5483C16.8776 18.9229 11.4444 17.7768 7.98488 17.9466C7.98488 17.9466 7.36939 17.9891 6.7539 18.0739C6.7539 18.0739 6.98736 17.9678 7.2845 17.8617C9.72523 17.0128 10.8713 16.843 12.357 16.0789C15.1373 14.6569 17.9176 11.537 18.4694 8.31101C17.4082 11.4097 14.1822 14.0839 11.2533 15.1663C9.23708 15.9091 5.60782 16.6307 5.60782 16.6307L5.45925 16.5458C2.99729 15.3361 2.9124 9.98769 7.41184 8.26856C9.38565 7.50451 11.2533 7.92898 13.3969 7.41961C15.6679 6.88901 18.2996 5.19111 19.3608 2.96261C20.5494 6.54943 21.9926 12.1101 19.4033 15.5483Z" fill="#6DB33F"/>
<path d="M19.4038 15.5486C16.8782 18.9232 11.4449 17.7771 7.98542 17.9469C7.98542 17.9469 7.36993 17.9893 6.75444 18.0742C6.75444 18.0742 6.9879 17.9681 7.28503 17.862C9.72577 17.013 10.8719 16.8432 12.3575 16.0792C15.1378 14.6572 17.9182 11.5373 18.47 8.31128C17.4088 11.41 14.1828 14.0842 11.2539 15.1666C9.23762 15.9094 5.60836 16.631 5.60836 16.631L5.45979 16.5461C2.99783 15.3364 2.91294 9.98796 7.41238 8.26884C9.38619 7.50478 11.2539 7.92926 13.3975 7.41989C15.6684 6.88929 18.3002 5.19139 19.3614 2.96289C20.5499 6.54971 21.9931 12.1103 19.4038 15.5486Z" fill="white"/>
<path d="M5.48026 18.6257C5.18312 19.0077 4.63131 19.0502 4.24928 18.753C3.86725 18.4559 3.8248 17.9041 4.12193 17.522C4.41907 17.14 4.97089 17.0976 5.35291 17.3947C5.71372 17.6918 5.77739 18.2437 5.48026 18.6257Z" fill="white"/>
</svg>
