<svg width="129" height="34" viewBox="0 0 129 34" fill="none" xmlns="http://www.w3.org/2000/svg">
<path d="M26 6H129L123.502 14.2203C122.377 15.9026 122.377 18.0974 123.502 19.7797L129 28H26V6Z" fill="#373AF5"/>
<circle cx="17" cy="17" r="16.5" fill="#25BC86" stroke="white"/>
<path d="M25.5 12L14.641 22.5L9 17.6477" stroke="white" stroke-linecap="round" stroke-linejoin="round"/>
<path d="M49.1379 21L46.0641 12.4275H47.2887L49.9217 19.8611H49.5788L52.2118 12.4275H53.4364L50.3626 21H49.1379ZM56.3851 21.1225C55.6789 21.1225 55.085 20.9775 54.6033 20.6877C54.1216 20.3979 53.7562 20.0142 53.5072 19.5366C53.2623 19.0549 53.1398 18.5262 53.1398 17.9507C53.1398 17.3914 53.2541 16.8791 53.4827 16.4137C53.7154 15.9484 54.0501 15.5769 54.4869 15.2993C54.9278 15.0176 55.4585 14.8768 56.079 14.8768C56.577 14.8768 57.0199 14.9768 57.4077 15.1768C57.7996 15.3728 58.1057 15.6606 58.3262 16.0402C58.5507 16.4158 58.6629 16.873 58.6629 17.4118C58.6629 17.4975 58.6589 17.5914 58.6507 17.6935C58.6466 17.7914 58.6344 17.8935 58.614 17.9996H54.2665C54.3196 18.5548 54.4522 18.9875 54.6645 19.2978C54.8768 19.608 55.1442 19.8264 55.4666 19.9529C55.7891 20.0795 56.1402 20.1428 56.5198 20.1428C56.7974 20.1428 57.0872 20.1142 57.3893 20.057C57.6914 19.9999 57.9771 19.9101 58.2466 19.7876L58.3935 20.6571C58.1608 20.7592 57.8771 20.8632 57.5424 20.9694C57.2077 21.0714 56.8219 21.1225 56.3851 21.1225ZM54.3645 17.2404H57.524C57.524 16.9587 57.471 16.7138 57.3648 16.5056C57.2587 16.2974 57.0974 16.1382 56.8811 16.028C56.6647 15.9137 56.3892 15.8565 56.0545 15.8565C55.5646 15.8565 55.187 15.979 54.9217 16.2239C54.6604 16.4648 54.4747 16.8036 54.3645 17.2404ZM61.8436 21.1225C61.4639 21.1225 61.1598 21.0531 60.9312 20.9143C60.7026 20.7755 60.5352 20.5979 60.4291 20.3816C60.327 20.1611 60.276 19.9305 60.276 19.6896V15.8565H59.2473L59.3453 14.9993H60.276V13.5175L61.3782 13.4072V14.9993H62.958V15.8565H61.3782V19.0161C61.3782 19.3998 61.4006 19.6774 61.4456 19.8488C61.4905 20.0203 61.6007 20.1285 61.7762 20.1734C61.9558 20.2183 62.2436 20.2407 62.6396 20.2407H62.9212L62.8355 21.1225H61.8436ZM65.9695 21.1225C65.5899 21.1225 65.2858 21.0531 65.0572 20.9143C64.8286 20.7755 64.6612 20.5979 64.5551 20.3816C64.453 20.1611 64.402 19.9305 64.402 19.6896V15.8565H63.3733L63.4713 14.9993H64.402V13.5175L65.5042 13.4072V14.9993H67.084V15.8565H65.5042V19.0161C65.5042 19.3998 65.5266 19.6774 65.5715 19.8488C65.6164 20.0203 65.7266 20.1285 65.9022 20.1734C66.0818 20.2183 66.3696 20.2407 66.7655 20.2407H67.0472L66.9615 21.1225H65.9695ZM70.8559 21.1225C70.1497 21.1225 69.5558 20.9775 69.0741 20.6877C68.5924 20.3979 68.227 20.0142 67.978 19.5366C67.7331 19.0549 67.6106 18.5262 67.6106 17.9507C67.6106 17.3914 67.7249 16.8791 67.9535 16.4137C68.1862 15.9484 68.521 15.5769 68.9577 15.2993C69.3986 15.0176 69.9293 14.8768 70.5498 14.8768C71.0478 14.8768 71.4907 14.9768 71.8785 15.1768C72.2704 15.3728 72.5766 15.6606 72.797 16.0402C73.0215 16.4158 73.1338 16.873 73.1338 17.4118C73.1338 17.4975 73.1297 17.5914 73.1215 17.6935C73.1174 17.7914 73.1052 17.8935 73.0848 17.9996H68.7373C68.7904 18.5548 68.923 18.9875 69.1353 19.2978C69.3476 19.608 69.615 19.8264 69.9375 19.9529C70.2599 20.0795 70.611 20.1428 70.9906 20.1428C71.2682 20.1428 71.5581 20.1142 71.8601 20.057C72.1622 19.9999 72.448 19.9101 72.7174 19.7876L72.8643 20.6571C72.6317 20.7592 72.348 20.8632 72.0132 20.9694C71.6785 21.0714 71.2927 21.1225 70.8559 21.1225ZM68.8353 17.2404H71.9948C71.9948 16.9587 71.9418 16.7138 71.8356 16.5056C71.7295 16.2974 71.5683 16.1382 71.3519 16.028C71.1356 15.9137 70.86 15.8565 70.5253 15.8565C70.0354 15.8565 69.6578 15.979 69.3925 16.2239C69.1312 16.4648 68.9455 16.8036 68.8353 17.2404ZM76.6205 21.1225C76.1103 21.1225 75.649 20.9837 75.2367 20.7061C74.8244 20.4285 74.4958 20.055 74.2509 19.5855C74.01 19.1161 73.8896 18.5915 73.8896 18.0119C73.8896 17.4608 73.9998 16.9464 74.2202 16.4688C74.4448 15.9912 74.7611 15.6075 75.1693 15.3177C75.5776 15.0238 76.0613 14.8768 76.6205 14.8768C77.0206 14.8768 77.4063 14.9646 77.7778 15.1401C78.1534 15.3116 78.4575 15.5993 78.6902 16.0035L78.4575 16.1627V11.8152H79.5597V21H78.58L78.3718 19.7264L78.6534 19.9223C78.4779 20.3183 78.2024 20.6183 77.8268 20.8224C77.4512 21.0225 77.0492 21.1225 76.6205 21.1225ZM76.8165 20.1428C77.0941 20.1428 77.3676 20.0713 77.637 19.9284C77.9105 19.7856 78.135 19.559 78.3105 19.2488C78.4901 18.9344 78.58 18.5221 78.58 18.0119C78.58 17.5384 78.4901 17.1424 78.3105 16.824C78.135 16.5015 77.9105 16.2607 77.637 16.1014C77.3676 15.9382 77.0941 15.8565 76.8165 15.8565C76.4409 15.8565 76.1184 15.9504 75.849 16.1382C75.5796 16.326 75.3734 16.5831 75.2306 16.9097C75.0877 17.2322 75.0163 17.5996 75.0163 18.0119C75.0163 18.3997 75.0877 18.7548 75.2306 19.0773C75.3734 19.3998 75.5796 19.659 75.849 19.855C76.1184 20.0468 76.4409 20.1428 76.8165 20.1428ZM85.4905 21.1225C84.9599 21.1225 84.519 21.0592 84.1679 20.9326C83.821 20.8061 83.576 20.6938 83.4332 20.5959L83.5679 19.5304C83.6985 19.6447 83.9291 19.7754 84.2598 19.9223C84.5904 20.0693 84.9844 20.1428 85.4416 20.1428C85.8294 20.1428 86.1253 20.0774 86.3294 19.9468C86.5376 19.8162 86.6417 19.6325 86.6417 19.3957C86.6417 19.1875 86.5743 19.0202 86.4396 18.8936C86.309 18.763 86.1498 18.6609 85.962 18.5875C85.7783 18.5099 85.6048 18.4487 85.4416 18.4038C85.1681 18.3303 84.8843 18.2384 84.5904 18.1282C84.3006 18.0139 84.0557 17.8445 83.8557 17.62C83.6556 17.3955 83.5556 17.0812 83.5556 16.677C83.5556 16.3709 83.6291 16.081 83.7761 15.8075C83.923 15.53 84.1618 15.3054 84.4925 15.134C84.8231 14.9625 85.2619 14.8768 85.8089 14.8768C86.209 14.8768 86.5335 14.9197 86.7825 15.0054C87.0356 15.087 87.254 15.1748 87.4377 15.2687L87.303 16.2729C87.1275 16.1259 86.9234 16.0014 86.6907 15.8994C86.458 15.7973 86.1723 15.7463 85.8334 15.7463C85.4905 15.7463 85.2109 15.8116 84.9946 15.9422C84.7782 16.0688 84.67 16.2729 84.67 16.5546C84.67 16.8362 84.7843 17.0363 85.0129 17.1546C85.2456 17.273 85.5967 17.4036 86.0661 17.5465C86.2131 17.5873 86.3825 17.6465 86.5743 17.7241C86.7703 17.8017 86.9601 17.9057 87.1438 18.0364C87.3275 18.167 87.4785 18.3385 87.5969 18.5507C87.7194 18.7589 87.7806 19.0202 87.7806 19.3345C87.7806 19.5998 87.7173 19.8713 87.5908 20.1489C87.4643 20.4224 87.2357 20.653 86.905 20.8408C86.5743 21.0286 86.1029 21.1225 85.4905 21.1225ZM88.8468 21V11.8152H89.949V17.7057L92.1533 14.9993H93.5004L91.1124 17.7914L93.5617 21H92.2146L89.949 17.9507V21H88.8468ZM94.3484 21V14.9993H95.4506V21H94.3484ZM94.3484 13.6522V12.4275H95.4506V13.6522H94.3484ZM98.4866 21.1225C98.0988 21.1225 97.7906 21.0531 97.562 20.9143C97.3375 20.7714 97.1763 20.5897 97.0783 20.3693C96.9803 20.1489 96.9313 19.9182 96.9313 19.6774V11.8152H98.0335V19.0406C98.0335 19.3835 98.056 19.6407 98.1009 19.8121C98.1458 19.9836 98.2356 20.0979 98.3703 20.155C98.5091 20.2121 98.7193 20.2407 99.001 20.2407L98.8418 21.1225H98.4866ZM101.381 21.1225C100.993 21.1225 100.685 21.0531 100.456 20.9143C100.232 20.7714 100.07 20.5897 99.9725 20.3693C99.8745 20.1489 99.8255 19.9182 99.8255 19.6774V11.8152H100.928V19.0406C100.928 19.3835 100.95 19.6407 100.995 19.8121C101.04 19.9836 101.13 20.0979 101.264 20.155C101.403 20.2121 101.613 20.2407 101.895 20.2407L101.736 21.1225H101.381Z" fill="white"/>
</svg>
