<svg width="22" height="22" viewBox="0 0 22 22" fill="none" xmlns="http://www.w3.org/2000/svg">
<path d="M12.8333 1.8335H5.49999C5.01376 1.8335 4.54744 2.02665 4.20363 2.37047C3.85981 2.71428 3.66666 3.1806 3.66666 3.66683V18.3335C3.66666 18.8197 3.85981 19.286 4.20363 19.6299C4.54744 19.9737 5.01376 20.1668 5.49999 20.1668H16.5C16.9862 20.1668 17.4525 19.9737 17.7964 19.6299C18.1402 19.286 18.3333 18.8197 18.3333 18.3335V7.3335L12.8333 1.8335Z" stroke="#1B1B1B" stroke-linecap="round" stroke-linejoin="round"/>
<path d="M12.8333 1.8335V7.3335H18.3333" stroke="#1B1B1B" stroke-linecap="round" stroke-linejoin="round"/>
<path d="M14.6667 11.9165H7.33334" stroke="#1B1B1B" stroke-linecap="round" stroke-linejoin="round"/>
<path d="M14.6667 15.5835H7.33334" stroke="#1B1B1B" stroke-linecap="round" stroke-linejoin="round"/>
<path d="M9.16668 8.25H8.25001H7.33334" stroke="#1B1B1B" stroke-linecap="round" stroke-linejoin="round"/>
</svg>

